<mxfile host="app.diagrams.net" modified="2024-02-08T15:18:23.393Z" agent="Mozilla/5.0 (X11; Linux x86_64; rv:122.0) Gecko/20100101 Firefox/122.0" etag="XYyz2k0c9euU3tkSD8TY" version="23.1.2" type="github">
  <diagram name="Page-1" id="slofe3mooPy-4vLo70an">
    <mxGraphModel dx="1434" dy="722" grid="1" gridSize="10" guides="1" tooltips="1" connect="1" arrows="1" fold="1" page="1" pageScale="1" pageWidth="827" pageHeight="1169" math="0" shadow="0">
      <root>
        <mxCell id="0" />
        <mxCell id="1" parent="0" />
        <mxCell id="U39olrDElzUNVVeOlBVj-12" value="&lt;h1&gt;&lt;font color=&quot;#ffffff&quot; data-font-src=&quot;https://fonts.googleapis.com/css?family=Montserrat&quot; face=&quot;Montserrat&quot;&gt;Data Base&lt;/font&gt;&lt;/h1&gt;" style="shape=cylinder3;whiteSpace=wrap;html=1;boundedLbl=1;backgroundOutline=1;size=15;fillColor=#0657FE;" vertex="1" parent="1">
          <mxGeometry x="339.25" y="330" width="161.5" height="100" as="geometry" />
        </mxCell>
        <mxCell id="U39olrDElzUNVVeOlBVj-24" value="&lt;h1 style=&quot;font-size: 14px;&quot;&gt;&lt;font style=&quot;font-size: 14px;&quot;&gt;&lt;b&gt;Purchasing&amp;nbsp;&lt;/b&gt;&lt;/font&gt;&lt;/h1&gt;&lt;h1 style=&quot;font-size: 14px;&quot;&gt;&lt;font style=&quot;font-size: 14px;&quot;&gt;&lt;b&gt;Service&lt;/b&gt;&lt;/font&gt;&lt;/h1&gt;" style="verticalLabelPosition=middle;verticalAlign=middle;html=1;shape=mxgraph.basic.rect;fillColor2=none;strokeWidth=1;size=20;indent=5;fillColor=#0657fe;align=center;labelPosition=center;spacingBottom=10;fontFamily=Montserrat;fontSource=https%3A%2F%2Ffonts.googleapis.com%2Fcss%3Ffamily%3DMontserrat;fontColor=#FFFFFF;labelBorderColor=none;bottomLeftStyle=rounded;bottomRightStyle=rounded;topRightStyle=rounded;topLeftStyle=rounded;" vertex="1" parent="1">
          <mxGeometry x="130" y="60" width="120" height="140" as="geometry" />
        </mxCell>
        <mxCell id="U39olrDElzUNVVeOlBVj-28" value="" style="edgeStyle=orthogonalEdgeStyle;rounded=0;orthogonalLoop=1;jettySize=auto;html=1;" edge="1" parent="1" source="U39olrDElzUNVVeOlBVj-25">
          <mxGeometry relative="1" as="geometry">
            <mxPoint x="420" y="320" as="targetPoint" />
          </mxGeometry>
        </mxCell>
        <mxCell id="U39olrDElzUNVVeOlBVj-25" value="&lt;h1 style=&quot;font-size: 14px;&quot;&gt;Delivery&lt;/h1&gt;&lt;h1 style=&quot;font-size: 14px;&quot;&gt;&lt;font style=&quot;font-size: 14px;&quot;&gt;&lt;b&gt;Service&lt;/b&gt;&lt;/font&gt;&lt;/h1&gt;" style="verticalLabelPosition=middle;verticalAlign=middle;html=1;shape=mxgraph.basic.rect;fillColor2=none;strokeWidth=1;size=20;indent=5;fillColor=#0657fe;align=center;labelPosition=center;spacingBottom=10;fontFamily=Montserrat;fontSource=https%3A%2F%2Ffonts.googleapis.com%2Fcss%3Ffamily%3DMontserrat;fontColor=#FFFFFF;labelBorderColor=none;topLeftStyle=rounded;topRightStyle=rounded;bottomRightStyle=rounded;bottomLeftStyle=rounded;" vertex="1" parent="1">
          <mxGeometry x="360" y="60" width="120" height="140" as="geometry" />
        </mxCell>
        <mxCell id="U39olrDElzUNVVeOlBVj-26" value="&lt;h1 style=&quot;font-size: 14px;&quot;&gt;Compliance&lt;/h1&gt;&lt;h1 style=&quot;font-size: 14px;&quot;&gt;&lt;font style=&quot;font-size: 14px;&quot;&gt;&lt;b&gt;Service&lt;/b&gt;&lt;/font&gt;&lt;/h1&gt;" style="verticalLabelPosition=middle;verticalAlign=middle;html=1;shape=mxgraph.basic.rect;fillColor2=none;strokeWidth=1;size=20;indent=5;fillColor=#0657fe;align=center;labelPosition=center;spacingBottom=10;fontFamily=Montserrat;fontSource=https%3A%2F%2Ffonts.googleapis.com%2Fcss%3Ffamily%3DMontserrat;fontColor=#FFFFFF;labelBorderColor=none;topLeftStyle=rounded;topRightStyle=rounded;bottomRightStyle=rounded;bottomLeftStyle=rounded;" vertex="1" parent="1">
          <mxGeometry x="590" y="60" width="120" height="140" as="geometry" />
        </mxCell>
      </root>
    </mxGraphModel>
  </diagram>
</mxfile>
